<?xml version="1.0" encoding="utf-8"?>
<!-- Generator: Adobe Illustrator 23.0.4, SVG Export Plug-In . SVG Version: 6.00 Build 0)  -->
<svg version="1.1" id="Layer_1" xmlns="http://www.w3.org/2000/svg" xmlns:xlink="http://www.w3.org/1999/xlink" x="0px" y="0px"
	 width="3232.134px" height="483.325px" viewBox="0 0 3232.134 483.325" style="enable-background:new 0 0 3232.134 483.325;"
	 xml:space="preserve">
<style type="text/css">
	.st0{fill:none;stroke:#318352;stroke-width:80;stroke-miterlimit:10;}
	.st1{fill:none;stroke:#04B04F;stroke-width:40;stroke-miterlimit:10;}
	.st2{fill:none;stroke:#04B04F;stroke-width:80;stroke-miterlimit:10;}
	.st3{fill:#04B04F;}
	.st4{fill:#FFFFFF;}
</style>
<g>
	<path class="st0" d="M460.262,295.148c-21.167,25.127-42.334,50.255-63.502,75.382c-10.813,11.987-68.777,73.908-155.106,72.779
		C143.446,442.025,40,359.557,40,241.655C40,130.284,130.284,40,241.655,40c29.846,0,59.965,9.066,59.965,9.066
		c44.523,13.9,73.227,40.07,86.816,54.313"/>
	<path class="st1" d="M372.68,118.058c-2.482-2.628-5.043-5.181-7.679-7.655c-32.107-30.142-75.308-48.604-122.821-48.604
		c-99.125,0-179.482,80.357-179.482,179.482s80.357,179.482,179.482,179.482c18.586,0,36.511-2.825,53.371-8.069c0,0,0,0,0,0
		c4.631-1.389,7.912-2.639,8.066-2.687c37.811-11.703,76.153-53.469,76.153-53.469c23.571-24.081,51.609-51.006,85.556-83.394"/>
	<line class="st2" x1="478.837" y1="291.381" x2="308.909" y2="291.381"/>
	<line class="st0" x1="459.655" y1="446.381" x2="459.655" y2="251.381"/>
	<g>
		<path class="st3" d="M418.859,345.719c26.599-31.44,53.197-62.88,79.796-94.32c-26.597-0.006-53.194-0.012-79.791-0.018
			C418.862,282.827,418.861,314.273,418.859,345.719z"/>
	</g>
</g>
<g>
	<path class="st3" d="M779.478,7.801c135.074,0,237.188,102.76,237.188,233.956c0,135.074-102.113,240.419-237.188,240.419
		c-135.073,0-237.187-105.345-237.187-240.419C542.292,110.561,644.405,7.801,779.478,7.801z M779.478,405.914
		c84.018,0,151.231-69.8,151.231-164.157c0-90.48-67.214-157.694-151.231-157.694c-84.017,0-151.23,67.214-151.23,157.694
		C628.248,336.114,695.462,405.914,779.478,405.914z"/>
	<path class="st4" d="M1326.885,356.796H1165.96l-38.777,117.624h-85.956l161.571-458.863h87.249l161.571,458.863h-85.956
		L1326.885,356.796z M1246.099,95.049c0,0-10.34,45.24-19.389,71.092l-40.716,122.794h120.21l-40.717-122.794
		c-8.401-25.852-18.096-71.092-18.096-71.092H1246.099z"/>
	<path class="st4" d="M1510.429,15.556h177.082c85.956,0,146.061,60.105,146.061,149.292c0,89.187-60.104,151.231-146.061,151.231
		H1593.8v158.34h-83.371V15.556z M1672,243.695c48.472,0,76.908-31.022,76.908-78.847c0-47.179-28.437-77.555-75.615-77.555H1593.8
		v156.401H1672z"/>
	<path class="st4" d="M1907.25,15.556h147.999c49.765,0,72.384,3.878,92.419,12.926c45.887,20.681,74.97,64.629,74.97,125.38
		c0,54.934-29.083,105.99-77.555,125.379v1.293c0,0,6.463,6.463,15.511,22.62l94.357,171.266h-93.064l-91.127-171.266h-80.139
		V474.42h-83.371V15.556z M2065.59,230.77c44.594,0,72.384-26.498,72.384-72.384c0-43.948-18.742-71.092-84.017-71.092h-63.336
		V230.77H2065.59z"/>
	<path class="st4" d="M2535.438,7.801c135.074,0,237.188,102.76,237.188,233.956c0,135.074-102.113,240.419-237.188,240.419
		c-135.073,0-237.187-105.345-237.187-240.419C2298.251,110.561,2400.364,7.801,2535.438,7.801z M2535.438,405.914
		c84.018,0,151.231-69.8,151.231-164.157c0-90.48-67.214-157.694-151.231-157.694c-84.017,0-151.23,67.214-151.23,157.694
		C2384.207,336.114,2451.421,405.914,2535.438,405.914z"/>
	<path class="st4" d="M2857.288,15.556h83.371l173.851,264.978c17.449,26.498,38.131,71.092,38.131,71.092h1.292
		c0,0-4.523-43.948-4.523-71.092V15.556h82.725V474.42h-82.725l-173.851-264.331c-17.45-26.498-38.131-71.091-38.131-71.091h-1.293
		c0,0,4.524,43.947,4.524,71.091V474.42h-83.371V15.556z"/>
</g>
</svg>
