<svg xmlns="http://www.w3.org/2000/svg" xmlns:xlink="http://www.w3.org/1999/xlink" width="282.517" height="253" viewBox="0 0 282.517 253"><defs><clipPath id="a"><rect width="162.217" height="162.56" fill="#949494"/></clipPath><filter id="b" x="157" y="0" width="125.517" height="125.518" filterUnits="userSpaceOnUse"><feOffset dy="3" input="SourceAlpha"/><feGaussianBlur stdDeviation="3" result="c"/><feFlood flood-opacity="0.161"/><feComposite operator="in" in2="c"/><feComposite in="SourceGraphic"/></filter></defs><g transform="translate(-787 -1939)"><circle cx="118.5" cy="118.5" r="118.5" transform="translate(787 1955)" fill="rgba(0,0,0,0.27)"/><g transform="translate(587 1756)"><path d="M390.469,271.164H244.3a7.311,7.311,0,0,0,0,14.622H390.469a7.311,7.311,0,1,0,0-14.622Zm0,0" transform="translate(0 111.986)" fill="#949494"/><g transform="translate(237 237)"><g clip-path="url(#a)"><path d="M246.439,322.716a7.311,7.311,0,0,0,0,14.622H374.323a7.311,7.311,0,1,0,0-14.622H372.5V256.943h1.822a3.651,3.651,0,1,0,0-7.3H246.439a3.651,3.651,0,0,0,0,7.3h1.822v65.773Zm111.443-65.773v65.773H335.958V256.943Zm-36.533,0v65.773H299.425V256.943Zm-58.466,0H284.8v65.773h-21.92Zm0,0" transform="translate(-229.995 -195.564)" fill="#949494"/><path d="M244.3,284.513H390.539a7.315,7.315,0,0,0,2.37-14.237l-72.523-32.636a7.288,7.288,0,0,0-5.981,0l-73.092,32.884a7.318,7.318,0,0,0,2.99,13.989Zm0,0" transform="translate(-237.001 -237.003)" fill="#949494"/></g></g></g><g transform="translate(0 72)"><g transform="translate(953 1873)"><g transform="matrix(1, 0, 0, 1, -166, -6)" filter="url(#b)"><circle cx="53.759" cy="53.759" r="53.759" transform="translate(166 6)" fill="#fedb41"/></g><path d="M53.759,0h-.008A53.742,53.742,0,0,0,15.745,91.772a53.59,53.59,0,0,0,38.013,15.745Z" transform="translate(107.517 107.518) rotate(180)" fill="#fc3"/><circle cx="40.083" cy="40.083" r="40.083" transform="translate(14.147 14.147)" fill="#fea832"/><path d="M0,80.163V0L.471,0a40.083,40.083,0,1,1,0,80.166Z" transform="translate(53.759 14.148)" fill="#fe9923"/></g><text transform="translate(988.839 1947.147)" fill="#fedb41" font-size="64" font-family="MuseoSans-500, Museo Sans" font-weight="500" letter-spacing="0.021em"><tspan x="0" y="0">$</tspan></text></g></g></svg>